<?xml version="1.0" encoding="UTF-8" standalone="no"?>
<!-- Created with Inkscape (http://www.inkscape.org/) -->

<svg
   xmlns:dc="http://purl.org/dc/elements/1.1/"
   xmlns:cc="http://creativecommons.org/ns#"
   xmlns:rdf="http://www.w3.org/1999/02/22-rdf-syntax-ns#"
   xmlns:svg="http://www.w3.org/2000/svg"
   xmlns="http://www.w3.org/2000/svg"
   xmlns:sodipodi="http://sodipodi.sourceforge.net/DTD/sodipodi-0.dtd"
   xmlns:inkscape="http://www.inkscape.org/namespaces/inkscape"
   width="210mm"
   height="297mm"
   viewBox="0 0 744.09448819 1052.3622047"
   id="svg4158"
   version="1.1"
   inkscape:version="0.91 r13725"
   sodipodi:docname="backup_line.svg">
  <defs
     id="defs4160" />
  <sodipodi:namedview
     id="base"
     pagecolor="#ffffff"
     bordercolor="#666666"
     borderopacity="1.0"
     inkscape:pageopacity="0.0"
     inkscape:pageshadow="2"
     inkscape:zoom="11.2"
     inkscape:cx="366.07019"
     inkscape:cy="527.87772"
     inkscape:document-units="px"
     inkscape:current-layer="layer1"
     showgrid="false"
     inkscape:window-width="1858"
     inkscape:window-height="1177"
     inkscape:window-x="54"
     inkscape:window-y="-8"
     inkscape:window-maximized="1" />
  <metadata
     id="metadata4163">
    <rdf:RDF>
      <cc:Work
         rdf:about="">
        <dc:format>image/svg+xml</dc:format>
        <dc:type
           rdf:resource="http://purl.org/dc/dcmitype/StillImage" />
        <dc:title></dc:title>
      </cc:Work>
    </rdf:RDF>
  </metadata>
  <g
     inkscape:label="Layer 1"
     inkscape:groupmode="layer"
     id="layer1">
    <path
       style="fill:#000000"
       d="m 369.1993,558.07166 c -10.93442,-1.05017 -20.52561,-7.53462 -25.5833,-17.29648 -1.93398,-3.73278 -3.21356,-8.19589 -3.39739,-11.84995 -0.0791,-1.57148 0.091,-2.01018 0.95654,-2.4679 0.50623,-0.2677 0.6803,-0.28447 2.92702,-0.28188 2.05792,0.002 2.45976,0.035 2.90119,0.23545 0.74494,0.33832 1.01836,0.86617 1.17725,2.27274 1.37985,12.21493 11.70682,21.51112 23.89634,21.51112 3.75098,0 7.25762,-0.84116 10.69732,-2.56603 3.71637,-1.86362 6.51526,-4.26623 8.97503,-7.70431 1.05842,-1.47938 2.59337,-4.52377 3.14856,-6.24483 1.97298,-6.11602 1.49292,-12.56854 -1.35441,-18.20462 -2.43281,-4.81559 -5.95319,-8.33596 -10.76877,-10.76878 -8.49674,-4.29251 -18.74174,-3.08886 -26.11814,3.06855 -0.60212,0.50261 -1.09476,0.94652 -1.09476,0.98646 0,0.0399 1.43074,1.51067 3.17942,3.26829 3.41717,3.43463 3.47139,3.51044 3.27175,4.5746 -0.10969,0.58472 -0.73428,1.27602 -1.30178,1.44081 -0.31016,0.0901 -3.50401,0.12079 -9.91355,0.0954 l -9.45596,-0.0375 -0.47266,-0.36056 c -0.85761,-0.6542 -0.82146,-0.18798 -0.82146,-10.59534 0,-8.40455 0.0215,-9.44522 0.20262,-9.82699 0.4147,-0.87393 1.27971,-1.29924 2.2684,-1.11535 0.40289,0.0749 0.95525,0.57002 3.90984,3.50442 l 3.44066,3.41716 1.00091,-0.87812 c 4.90129,-4.29995 10.32843,-6.80748 16.91489,-7.81529 2.11067,-0.32296 6.71283,-0.29091 8.98389,0.0625 3.42045,0.53236 6.26064,1.42839 9.38362,2.96034 3.17507,1.55751 5.67511,3.32174 8.2249,5.80418 2.7207,2.64881 4.69507,5.35845 6.34826,8.71237 1.60145,3.24893 2.48751,6.03064 3.02884,9.50873 0.39041,2.5084 0.39041,6.87522 0,9.38362 -1.08211,6.95264 -4.11473,12.92561 -9.08737,17.89825 -4.96251,4.96252 -11.02907,8.04478 -17.85964,9.07404 -1.92672,0.29032 -5.78911,0.40955 -7.60806,0.23486 z m -0.81893,-28.20238 -0.3071,-0.3071 0,-10.39591 0,-10.39591 0.3071,-0.3071 0.3071,-0.3071 3.38948,0 3.38947,0 0.3071,0.3071 0.3071,0.3071 0,6.69933 0,6.69933 3.69658,0 3.69657,0 0.3071,0.3071 0.3071,0.3071 0,3.38948 0,3.38948 -0.3071,0.3071 -0.3071,0.3071 -7.39315,0 -7.39315,0 -0.3071,-0.3071 z"
       id="path4147"
       inkscape:connector-curvature="0" />
  </g>
</svg>
