#define coffee_oled_width 42
#define coffee_oled_height 64
static char coffee_oled_bits[] = {
  0x00, 0x00, 0x02, 0x00, 0x00, 0x00, 0x00, 0x00, 0x02, 0x00, 0x00, 0x00, 
  0x00, 0x00, 0x01, 0x00, 0x00, 0x00, 0x00, 0x00, 0x01, 0x00, 0x00, 0x00, 
  0x00, 0x00, 0x01, 0x00, 0x00, 0x00, 0x00, 0x00, 0x02, 0x00, 0x00, 0x00, 
  0x00, 0x00, 0x06, 0x00, 0x00, 0x00, 0x00, 0x00, 0x0C, 0x00, 0x00, 0x00, 
  0x00, 0x00, 0x18, 0x00, 0x00, 0x00, 0x00, 0x00, 0x70, 0x00, 0x00, 0x00, 
  0x00, 0x00, 0xE0, 0x00, 0x00, 0x00, 0x00, 0x00, 0x80, 0x01, 0x00, 0x00, 
  0x00, 0x00, 0x80, 0x01, 0x00, 0x00, 0x00, 0x00, 0x00, 0x03, 0x00, 0x00, 
  0x00, 0x00, 0x00, 0x03, 0x00, 0x00, 0x00, 0x00, 0x00, 0x02, 0x00, 0x00, 
  0x00, 0x00, 0x00, 0x02, 0x00, 0x00, 0x00, 0x00, 0x00, 0x03, 0x00, 0x00, 
  0x00, 0x00, 0x80, 0x03, 0x00, 0x00, 0x00, 0x00, 0xC0, 0x01, 0x00, 0x00, 
  0x00, 0x00, 0xF8, 0x00, 0x00, 0x00, 0x00, 0x00, 0x7F, 0x00, 0x00, 0x00, 
  0x00, 0xE0, 0x0F, 0x00, 0x00, 0x00, 0x00, 0xF8, 0x01, 0x00, 0x00, 0x00, 
  0x00, 0x3C, 0x00, 0x00, 0x00, 0x00, 0x00, 0x0F, 0x00, 0x00, 0x00, 0x00, 
  0x80, 0x07, 0x00, 0x00, 0x00, 0x00, 0x80, 0x01, 0x00, 0x00, 0x00, 0x00, 
  0xC0, 0x01, 0x00, 0x00, 0x00, 0x00, 0xC0, 0x00, 0x00, 0x00, 0x00, 0x00, 
  0xC0, 0x01, 0x00, 0x00, 0x00, 0x00, 0x80, 0x01, 0x00, 0x00, 0x00, 0x00, 
  0x80, 0x07, 0x00, 0x00, 0x00, 0x00, 0x00, 0xFF, 0x5B, 0x02, 0x00, 0x00, 
  0x00, 0xFE, 0xFF, 0x3F, 0x00, 0x00, 0xC0, 0xEF, 0xFF, 0x7F, 0x00, 0x00, 
  0xE0, 0x1F, 0x00, 0xF0, 0x00, 0x00, 0x64, 0x78, 0x80, 0xC3, 0x01, 0x00, 
  0xEC, 0xE0, 0x01, 0xC2, 0x01, 0x00, 0xDC, 0x83, 0x07, 0xC3, 0x00, 0x00, 
  0xBE, 0x3F, 0xFE, 0xFD, 0xF8, 0x00, 0x3E, 0xFE, 0xFF, 0x7F, 0xFE, 0x01, 
  0x0F, 0xE0, 0xFF, 0x1F, 0x8E, 0x03, 0x0E, 0x00, 0xB4, 0x01, 0x06, 0x03, 
  0x0F, 0x00, 0x00, 0x00, 0x02, 0x03, 0x0E, 0x00, 0x00, 0x00, 0x82, 0x03, 
  0x0E, 0x00, 0x00, 0x00, 0x82, 0x01, 0x0E, 0x00, 0x00, 0x00, 0xC1, 0x00, 
  0x1E, 0x00, 0x00, 0x00, 0x71, 0x00, 0x1C, 0x00, 0x00, 0x80, 0x1F, 0x00, 
  0x38, 0x00, 0x00, 0x80, 0x07, 0x00, 0x78, 0x00, 0x00, 0xC0, 0x01, 0x00, 
  0xF0, 0x00, 0x00, 0xE0, 0x00, 0x00, 0xF8, 0x01, 0x00, 0xE0, 0x00, 0x00, 
  0xC6, 0x07, 0x00, 0xB8, 0x00, 0x00, 0x83, 0x0F, 0x00, 0x8E, 0x00, 0x00, 
  0x03, 0xFE, 0xD0, 0x87, 0x01, 0x00, 0x03, 0xF8, 0xFF, 0x01, 0x00, 0x00, 
  0x03, 0x40, 0x1F, 0x00, 0x00, 0x00, 0x0E, 0x00, 0x00, 0x00, 0x0E, 0x00, 
  0x3C, 0x00, 0x00, 0xF0, 0x03, 0x00, 0xF8, 0x9F, 0xFA, 0x7F, 0x00, 0x00, 
  0xE0, 0xFF, 0xFF, 0x0F, 0x00, 0x00, 0x00, 0xFF, 0xFF, 0x00, 0x00, 0x00, 
  };
