<?xml version="1.0" encoding="UTF-8" standalone="no"?>
<!-- Created with Inkscape (http://www.inkscape.org/) -->

<svg
   xmlns:dc="http://purl.org/dc/elements/1.1/"
   xmlns:cc="http://creativecommons.org/ns#"
   xmlns:rdf="http://www.w3.org/1999/02/22-rdf-syntax-ns#"
   xmlns:svg="http://www.w3.org/2000/svg"
   xmlns="http://www.w3.org/2000/svg"
   xmlns:sodipodi="http://sodipodi.sourceforge.net/DTD/sodipodi-0.dtd"
   xmlns:inkscape="http://www.inkscape.org/namespaces/inkscape"
   width="297mm"
   height="210mm"
   viewBox="0 0 1052.3622 744.09448"
   id="svg4157"
   version="1.1"
   inkscape:version="0.91 r13725"
   sodipodi:docname="coffee_line.svg">
  <defs
     id="defs4159" />
  <sodipodi:namedview
     id="base"
     pagecolor="#ffffff"
     bordercolor="#666666"
     borderopacity="1.0"
     inkscape:pageopacity="0.0"
     inkscape:pageshadow="2"
     inkscape:zoom="0.98994949"
     inkscape:cx="462.05108"
     inkscape:cy="292.3991"
     inkscape:document-units="px"
     inkscape:current-layer="layer1"
     showgrid="false"
     inkscape:window-width="1858"
     inkscape:window-height="1177"
     inkscape:window-x="54"
     inkscape:window-y="-8"
     inkscape:window-maximized="1" />
  <metadata
     id="metadata4162">
    <rdf:RDF>
      <cc:Work
         rdf:about="">
        <dc:format>image/svg+xml</dc:format>
        <dc:type
           rdf:resource="http://purl.org/dc/dcmitype/StillImage" />
        <dc:title></dc:title>
      </cc:Work>
    </rdf:RDF>
  </metadata>
  <g
     inkscape:label="Layer 1"
     inkscape:groupmode="layer"
     id="layer1"
     transform="translate(0,-308.26772)">
    <path
       style="fill:#000000;stroke-width:1;stroke-miterlimit:4;stroke-dasharray:none"
       d="m 501.57617,313.38477 c -12.09671,4.95862 -19.50373,17.99667 -21.39844,30.55273 -2.89035,20.70485 2.81673,43.17358 18.36524,57.77344 20.67088,22.23956 51.24036,34.82859 66.54097,61.99003 9.57795,17.84366 10.51004,40.82446 -1.45113,57.88301 -13.58578,19.89686 -39.11853,24.75157 -60.82864,31.11374 -39.25735,11.01667 -80.41746,22.2801 -112.28277,49.0152 -13.05785,11.45729 -25.85545,26.53383 -25.74601,44.8613 -1.31766,14.00249 2.17426,28.37051 10.74805,39.63672 13.95323,20.13349 37.74454,31.06959 61.51744,34.20039 26.38244,3.69247 53.07091,2.83666 79.6088,4.05289 32.52751,0.88125 65.28459,-0.42913 97.34499,5.59479 11.44577,3.23779 22.41598,11.41536 25.99752,23.10505 -5.13347,14.59361 -21.82173,19.57904 -34.9603,24.27528 -36.84649,11.54603 -75.9249,8.92013 -113.91861,7.09582 -33.63281,-2.10907 -66.71771,-10.41997 -98.07674,-22.45912 -7.78851,-3.76636 -16.79525,-7.14791 -22.55802,-13.84362 -2.88597,-7.20509 6.58382,-10.33445 11.85742,-11.68554 19.91276,-3.79254 38.65647,6.68506 56.34194,14.15542 24.29036,10.9611 47.55918,25.03934 73.53892,31.71958 18.4923,3.47051 37.53567,1.8662 56.05273,-0.47461 12.86853,-2.17894 24.85825,-13.67476 23.56836,-27.375 -0.9376,-10.5304 -11.13573,-16.592 -20.64844,-18.21875 -5.86835,-1.38674 -11.96623,-1.02803 -17.84765,0.0664 6.76409,8.70545 19.46167,8.11184 26.47656,16.19531 4.28301,6.42645 -3.51422,13.87485 -9.46875,15.78125 -12.83402,3.04644 -26.4068,1.95278 -39.4082,1.26172 -27.1467,-1.6164 -50.02746,-18.03024 -73.61484,-29.94996 -19.82616,-9.62106 -39.4906,-20.97016 -61.48087,-24.71215 -18.34997,-4.03316 -38.23954,6.36229 -45.99414,23.28321 -4.5992,13.49285 5.39657,27.01931 16.55106,33.71323 29.19443,19.6537 64.14997,28.25487 98.34534,34.4116 38.38629,5.98685 77.59747,6.76878 116.2389,3.05209 26.44994,-3.65175 54.62749,-11.14143 73.51509,-31.21208 8.89315,-9.33909 10.43689,-23.09307 8.65821,-35.32617 -2.38673,-10.05305 -9.72039,-18.21798 -17.13282,-25.06836 -16.82137,-14.52478 -39.80848,-18.73222 -61.42896,-18.49697 -47.49426,-2.03108 -95.18501,-0.37645 -142.5144,-4.50694 -18.97687,-3.06605 -40.48021,-10.04936 -50.17578,-28.04882 -7.31725,-14.45116 -2.99238,-33.46634 10.20405,-43.02486 32.40354,-29.3917 76.18113,-40.36672 117.0802,-52.78549 22.65885,-6.94096 46.78051,-16.96005 59.71575,-38.03926 11.41368,-17.25132 14.72038,-39.43604 8.54102,-59.21289 -6.73727,-25.42204 -27.20196,-44.02659 -48.27431,-58.22386 -18.2245,-12.91224 -39.82434,-25.95998 -47.21397,-48.43435 -4.62534,-14.42046 -1.25234,-31.04493 8.6875,-42.80078 1.46194,-2.55401 7.25105,-10.31129 0.92773,-10.89062 z M 322.97461,739.24609 c -7.02265,1.05454 -6.36779,9.71957 -6.46484,14.96875 -2.27161,19.50507 -18.5157,35.68737 -16.475,56.17185 -0.4726,17.79932 -0.60893,36.53829 8.14196,52.64948 16.58145,37.04193 43.80184,69.33958 77.26272,92.24508 28.36152,18.04437 61.66857,28.40212 95.20703,30.03125 31.84976,0.91273 64.94235,0.22787 94.60341,-12.82058 26.50476,-10.92277 50.62611,-28.89738 66.95323,-52.4763 -2.68767,12.20661 -2.49377,26.13586 4.08985,37.10547 3.76795,4.98181 11.43007,9.25991 17.27148,6.24805 3.92155,-4.24004 -1.99419,-8.48969 -5.63476,-9.93945 -8.45884,-5.5404 -5.53155,-17.02292 -4.75781,-25.38867 1.84683,-13.34191 10.61937,-25.21837 23.00885,-30.61467 27.17004,-14.93928 60.3492,-22.18403 80.90536,-47.13217 11.16514,-13.107 17.04393,-32.32185 9.56625,-48.64379 -9.71695,-23.30346 -37.80605,-34.82082 -61.73632,-29.33008 -16.30455,3.03587 -33.88586,13.25783 -37.89844,30.46875 -1.00519,5.99142 -0.8454,14.07237 4.42187,17.85938 2.95957,1.24649 4.73359,-3.16748 7.59571,-1.22852 9.15929,0.57866 11.87404,-9.96756 17.02343,-15.23242 9.36216,-9.17687 24.5893,-11.2356 36.67969,-6.98633 11.55898,4.43933 21.369,18.82107 14.57617,31.02539 -9.07479,19.87821 -28.73987,31.70214 -47.79239,40.40087 -14.59975,7.15594 -29.60642,14.17346 -41.93808,24.98585 9.05398,-19.51917 16.09888,-40.44174 17.84961,-61.96484 0.77027,-3.92158 -3.41567,-10.0738 -7.09961,-5.90039 -3.70628,4.40238 -1.77796,10.86018 -4.36169,15.82937 -8.42402,30.56701 -22.95647,60.37327 -44.87652,83.64147 -29.19323,28.26828 -71.32169,39.83259 -111.27546,39.44517 -42.6318,-0.3702 -86.41354,-12.77261 -118.61953,-41.69303 -24.94046,-21.78674 -45.47582,-50.10437 -53.70469,-82.45223 -3.26399,-15.2647 -3.49494,-32.85576 5.44922,-46.28052 5.54545,-6.55299 14.49308,-5.91542 22.09375,-4.85547 4.37166,0.36508 8.85477,-4.40188 5.59766,-8.42187 -5.51178,-8.68024 -15.39433,-12.80824 -24.66016,-16.01367 -6.22793,-4.85555 -5.63969,-14.0358 -11.07617,-19.64258 -2.38909,-3.11275 -5.846,-5.96236 -9.92578,-6.0586 z m 15.49414,184.51172 c -15.61029,1.8422 -33.48479,7.49214 -40.72852,22.8086 -9.07573,18.18444 -3.57896,41.21326 10.60938,55.20699 22.61998,25.6966 57.08463,36.097 89.78511,41.3759 37.14821,5.476 74.84788,3.145 112.21604,1.9802 45.25534,-1.9528 89.85327,-11.5998 133.12998,-24.59 19.49068,-6.2277 38.94777,-13.1475 57.27903,-22.18403 3.48392,-2.88959 0.14184,-9.24142 -4.25196,-7.48633 -34.37681,6.94325 -68.41804,15.73166 -103.30689,19.90936 -66.74883,9.1409 -134.66955,11.8168 -201.65314,3.8805 -28.41217,-3.9217 -59.2071,-12.9816 -76.11223,-37.76447 -8.04794,-11.03482 -4.97328,-27.95264 6.78125,-35.08008 6.49619,-4.95478 14.63835,-6.79288 22.0332,-9.61523 3.57931,-2.11716 2.62547,-8.39006 -1.93359,-8.29492 -1.27538,-0.15558 -2.56422,-0.19866 -3.84766,-0.14649 z"
       id="path4146"
       inkscape:connector-curvature="0" />
  </g>
</svg>
