<?xml version="1.0" encoding="utf-8"?>
<!-- Svg Vector Icons : http://www.onlinewebfonts.com/icon -->
<!DOCTYPE svg PUBLIC "-//W3C//DTD SVG 1.1//EN" "http://www.w3.org/Graphics/SVG/1.1/DTD/svg11.dtd">
<svg version="1.1" xmlns="http://www.w3.org/2000/svg" xmlns:xlink="http://www.w3.org/1999/xlink" x="0px" y="0px" viewBox="0 0 1000 1000" enable-background="new 0 0 1000 1000" xml:space="preserve">
<metadata> Svg Vector Icons : http://www.onlinewebfonts.com/icon </metadata>
<g><g transform="translate(0.000000,511.000000) scale(0.100000,-0.100000)"><path d="M288.1,3032c-28.1-10.2-79.1-51-114.8-89.3l-63.8-68.9l-7.7-2707.6c-5.1-1919.1,0-2738.2,20.4-2807.1c17.9-63.8,56.1-114.8,109.7-145.5c79.1-48.5,140.4-51,1697-51c1416.3,0,1625.6,5.1,1691.9,40.8c142.9,74,150.6,122.5,150.6,1094.8v880.4h-204.2h-204.2v-204.2v-204.2H1934.1H505V709.7v1939.5h1429.1h1429.1v-1327V-4.8h204.2h204.2v1411.2c0,1074.4-7.7,1424-33.2,1472.5c-17.9,33.2-71.5,89.3-117.4,119.9l-86.8,58.7l-1597.5-2.6C1058.8,3054.9,316.2,3044.7,288.1,3032z M2138.3-2046.4v-204.2h-204.2H1730v204.2v204.2h204.2h204.2V-2046.4z"/><path d="M6412.8,3032c-28.1-10.2-79.1-51-114.8-89.3l-63.8-68.9l-7.7-686.5l-7.7-686.5h206.7h204.2V2075v574.2h1429.1h1429.1V709.7v-1939.5H8058.8H6629.7v957v957h-204.2h-204.2V-949c0-1791.5-2.6-1771.1,150.6-1847.6c66.3-35.7,275.6-40.8,1686.8-40.8c1786.3,0,1730.2-5.1,1801.6,165.9c51,122.5,53.6,5450.9,2.6,5550.5c-17.9,33.2-71.4,89.3-117.4,119.9l-86.8,58.7l-1597.5-2.6C7183.5,3054.9,6440.8,3044.7,6412.8,3032z M8262.9-2046.4v-204.2h-204.1h-204.2v204.2v204.2h204.2h204.1V-2046.4z"/><path d="M5185.3,1727.9l-635.4-635.4l635.4-635.4l635.4-635.4l150.6,130.1l148,132.7l-400.7,400.7l-403.2,403.2h1168.8h1166.2v204.2v204.2H6484.2H5315.4l400.7,403.2l400.6,400.7l-148,132.7l-148,130.1L5185.3,1727.9z"/><path d="M4021.6,727.6l-145.5-132.7l400.6-400.7L4677.5-209H3508.7H2342.4v-204.2v-204.2h1166.2h1168.8l-395.5-395.5l-395.6-395.6l140.4-140.4l140.4-140.4l638,638l638,638l-638,635.4l-638,635.4L4021.6,727.6z"/></g></g>
</svg>